<mxfile host="app.diagrams.net" modified="2024-10-11T09:13:00.058Z" agent="Mozilla/5.0 (Windows NT 10.0; Win64; x64) AppleWebKit/537.36 (KHTML, like Gecko) Chrome/127.0.0.0 Safari/537.36 OPR/113.0.0.0" etag="6saCHNlXWuFbqY2sFWEl" version="23.1.1" type="device">
  <diagram name="Page-1" id="wY48ky7hm9n4EV69WaKi">
    <mxGraphModel dx="1249" dy="539" grid="1" gridSize="10" guides="1" tooltips="1" connect="1" arrows="1" fold="1" page="1" pageScale="1" pageWidth="827" pageHeight="1169" math="0" shadow="0">
      <root>
        <mxCell id="0" />
        <mxCell id="1" parent="0" />
      </root>
    </mxGraphModel>
  </diagram>
</mxfile>
